<svg width="184" height="185" viewBox="0 0 184 185" fill="none" xmlns="http://www.w3.org/2000/svg">
<g clip-path="url(#clip0_1758_184)">
<path d="M89.0899 15.4406L82.5899 15.9506L81.4999 22.0706L77.6899 22.3706L82.2799 0.520625L87.0899 0.140625L94.9399 21.0006L91.0999 21.3006L89.0899 15.4406ZM88.7499 14.4406L84.9999 3.66062H84.8199L82.7799 15.0006L88.7499 14.4406Z" fill="#477AA1"/>
<path d="M99.0001 0L105.5 1C111.62 2 114 5.86 112.87 13C111.74 20.14 108.26 23.13 102.14 22.16L95.6401 21.16L99.0001 0ZM102.4 19.24C106.4 19.87 108.4 17.85 109.24 12.43C110.08 7.01 108.84 4.56 104.83 3.93L102.13 3.5L99.6601 18.81L102.4 19.24Z" fill="#477AA1"/>
<path d="M116.2 13.9295C119.06 7.3495 123.47 5.0995 128.71 7.3795C133.95 9.6595 135.34 14.4395 132.48 21.0095C129.62 27.5795 125.17 29.8595 119.92 27.5795C114.67 25.2995 113.32 20.5295 116.2 13.9295ZM129.12 19.4495C131.22 14.6195 130.68 11.4495 127.53 10.0995C124.38 8.7495 121.72 10.4495 119.6 15.3195C117.48 20.1895 118.01 23.5095 121.11 24.8595C124.21 26.2095 127 24.3695 129.12 19.4495Z" fill="#477AA1"/>
<path d="M148.52 19.1191L151.67 21.9991L143.37 41.6991L157 26.8791L159.7 29.3591L145.2 45.1491L142.05 42.2691L150.35 22.5691L136.75 37.3991L134 34.9191L148.52 19.1191Z" fill="#477AA1"/>
<path d="M157.36 52.0808L153.72 46.6708L147.85 48.7308L145.71 45.5508L167 38.8008L169.7 42.8008L155.37 59.9208L153.22 56.7208L157.36 52.0808ZM158.04 51.3008L165.61 42.7408L165.51 42.5908L154.68 46.3408L158.04 51.3008Z" fill="#477AA1"/>
<path d="M161.14 57.8602L175.27 52.4102L176.6 55.8402L162.8 61.1602C160.36 62.1002 159.49 63.6202 160.3 65.7202C161.11 67.8202 162.78 68.3802 165.22 67.4402L179 62.1202L180.32 65.5502L166.21 71.0002C162.37 72.4802 159.14 71.0002 157.53 66.7902C155.92 62.5802 157.33 59.3302 161.14 57.8602Z" fill="#477AA1"/>
<path d="M181.92 72L182.5 75.63L164.26 78.55L165.63 87.07L162.7 87.53L160.76 75.39L181.92 72Z" fill="#477AA1"/>
<path d="M183.93 88.4805L184 92.1305L162.54 92.5305L162.47 88.8905L183.93 88.4805Z" fill="#477AA1"/>
<path d="M175.63 107.301C175.455 108 175.08 108.633 174.551 109.122C174.022 109.611 173.361 109.935 172.651 110.054C171.94 110.173 171.21 110.082 170.55 109.792C169.891 109.502 169.33 109.025 168.937 108.421C168.545 107.817 168.337 107.111 168.34 106.39C168.343 105.67 168.556 104.966 168.953 104.364C169.351 103.763 169.915 103.291 170.577 103.006C171.239 102.722 171.97 102.636 172.68 102.761C173.185 102.839 173.668 103.022 174.097 103.3C174.526 103.577 174.892 103.942 175.171 104.371C175.449 104.799 175.634 105.282 175.713 105.787C175.792 106.292 175.764 106.808 175.63 107.301V107.301Z" fill="#477AA1"/>
<path d="M159.56 128.271L162.39 122.401L157.65 118.401L159.31 114.961L175.88 129.961L173.79 134.311L151.79 130.591L153.47 127.121L159.56 128.271ZM160.56 128.471L171.77 130.681L171.84 130.521L163.13 123.061L160.56 128.471Z" fill="#477AA1"/>
<path d="M167.92 144.551L163.75 149.651C159.83 154.441 155.27 154.531 149.67 149.951C144.07 145.371 143.25 140.861 147.17 136.071L151.34 130.971L167.92 144.551ZM149.6 137.781C147.04 140.901 147.78 143.651 152.02 147.131C156.26 150.611 159.02 150.751 161.59 147.611L163.32 145.501L151.32 135.671L149.6 137.781Z" fill="#477AA1"/>
<path d="M147.19 152.421C151.44 158.201 151.19 163.141 146.57 166.531C141.95 169.921 137.14 168.711 132.89 162.941C128.64 157.171 128.89 152.171 133.52 148.781C138.15 145.391 142.93 146.611 147.19 152.421ZM135.93 160.811C139.05 165.061 142.04 166.181 144.81 164.141C147.58 162.101 147.43 158.941 144.29 154.671C141.15 150.401 138 149.171 135.29 151.171C132.58 153.171 132.75 156.491 135.93 160.811Z" fill="#477AA1"/>
<path d="M126.43 177.781L122.36 179.001L109.51 162.001L115.51 181.231L112 182.261L105.65 161.801L109.72 160.531L122.57 177.621L116.57 158.401L120.08 157.311L126.43 177.781Z" fill="#477AA1"/>
<path d="M93.5202 168.78L100.03 168.37L101.22 162.27L105 162L100.08 183.78L95.2502 184.09L87.7202 163.09L91.5702 162.84L93.5202 168.78ZM93.8502 169.78L97.4102 180.64H97.5902L99.8202 169.39L93.8502 169.78Z" fill="#477AA1"/>
<path d="M86.5998 169.14L84.2098 184.14L80.5798 183.56L82.9098 168.96C83.3298 166.38 82.4598 164.86 80.2298 164.51C77.9998 164.16 76.6798 165.32 76.2298 167.89L73.8898 182.5L70.2598 181.92L72.6598 166.92C73.3098 162.85 76.2398 160.83 80.6598 161.54C85.0798 162.25 87.2498 165.1 86.5998 169.14Z" fill="#477AA1"/>
<path d="M64.0002 180L60.5702 178.68L67.2002 161.45L59.2002 158.35L60.2602 155.59L71.6702 160L64.0002 180Z" fill="#477AA1"/>
<path d="M48.6502 173.42L45.4702 171.64L55.9402 152.91L59.1202 154.69L48.6502 173.42Z" fill="#477AA1"/>
<path d="M36.6 156.761C36.1936 156.458 35.8537 156.075 35.6015 155.635C35.3493 155.195 35.19 154.709 35.1337 154.205C35.0774 153.701 35.1252 153.191 35.2741 152.707C35.4231 152.222 35.6699 151.773 35.9995 151.388C36.329 151.003 36.7341 150.69 37.1898 150.468C37.6454 150.246 38.1418 150.12 38.6481 150.097C39.1545 150.075 39.6601 150.157 40.1334 150.338C40.6068 150.519 41.0379 150.796 41.4 151.151C41.8064 151.453 42.1463 151.837 42.3985 152.276C42.6507 152.716 42.8099 153.203 42.8663 153.706C42.9226 154.21 42.8748 154.72 42.7259 155.205C42.5769 155.689 42.3301 156.138 42.0005 156.523C41.671 156.908 41.2659 157.221 40.8102 157.443C40.3546 157.665 39.8582 157.792 39.3519 157.814C38.8455 157.836 38.3399 157.754 37.8666 157.573C37.3932 157.392 36.9621 157.115 36.6 156.761V156.761Z" fill="#477AA1"/>
<path d="M26.59 132.33L30.25 137.73L36.11 135.65L38.25 138.82L17 145.64L14.29 141.64L28.55 124.49L30.71 127.68L26.59 132.33ZM25.9 133.12L18.37 141.7L18.47 141.85L29.29 138.06L25.9 133.12Z" fill="#477AA1"/>
<path d="M8.29989 131.37L5.99989 125.21C3.82989 119.41 5.99989 115.42 12.8199 112.89C19.6399 110.36 23.9099 111.89 26.0799 117.71L28.3799 123.87L8.29989 131.37ZM23.3599 118.94C21.9499 115.16 19.1999 114.42 14.0699 116.34C8.93989 118.26 7.41989 120.56 8.83989 124.34L9.83989 126.89L24.3599 121.47L23.3599 118.94Z" fill="#477AA1"/>
<path d="M11.93 109.49C4.78998 110.23 0.659982 107.49 0.0699817 101.82C-0.520018 96.1505 2.93998 92.5705 10.07 91.8205C17.2 91.0705 21.36 93.8205 21.96 99.5105C22.56 105.2 19.09 108.74 11.93 109.49ZM10.37 95.4905C5.12998 96.0405 2.65998 98.0604 3.00998 101.49C3.35998 104.92 6.17998 106.37 11.45 105.82C16.72 105.27 19.37 103.17 19.02 99.8205C18.67 96.4705 15.71 95.0004 10.37 95.5204V95.4905Z" fill="#477AA1"/>
<path d="M0.489746 78.81L1.48975 74.65L22.7297 72.13L3.05975 67.63L3.87975 64L24.7697 68.8L23.8197 73L2.57975 75.52L22.1997 80L21.3797 83.59L0.489746 78.81Z" fill="#477AA1"/>
<path d="M24.82 54.8697L21.9 60.6997L26.57 64.7997L24.86 68.2197L8.52002 52.9997L10.68 48.6797L32.61 52.7397L30.89 56.1897L24.82 54.8697ZM23.82 54.6597L12.63 52.2797L12.55 52.4297L21.14 59.9997L23.82 54.6597Z" fill="#477AA1"/>
<path d="M27.9998 48.7402L16.2998 39.1302L18.6298 36.2902L30.0598 45.6702C32.0598 47.3302 33.8298 47.3502 35.2598 45.6002C36.6898 43.8502 36.3498 42.1302 34.3298 40.4702L22.8898 31.0902L25.2198 28.2402L36.9298 37.8602C40.1098 40.4702 40.3798 44.0302 37.5398 47.4802C34.6998 50.9302 31.1498 51.3302 27.9998 48.7402Z" fill="#477AA1"/>
<path d="M30 23.7004L32.87 21.4004L44.47 35.8104L51.2 30.4104L53.05 32.7304L43.45 40.4204L30 23.7004Z" fill="#477AA1"/>
<path d="M43.3901 13.7995L46.5301 11.9395L57.4801 30.3895L54.3401 32.2495L43.3901 13.7995Z" fill="#477AA1"/>
<path d="M63.8698 11.7397C64.7981 11.4162 65.8169 11.4746 66.702 11.9022C67.5872 12.3298 68.2663 13.0915 68.5898 14.0197C68.9134 14.948 68.855 15.9668 68.4274 16.8519C67.9998 17.7371 67.2381 18.4162 66.3098 18.7397C65.8502 18.9 65.3635 18.9681 64.8776 18.9402C64.3916 18.9123 63.9159 18.789 63.4776 18.5773C63.0393 18.3656 62.647 18.0696 62.3231 17.7063C61.9992 17.3429 61.75 16.9194 61.5898 16.4597C61.4296 16.0001 61.3615 15.5134 61.3894 15.0275C61.4173 14.5415 61.5406 14.0658 61.7523 13.6275C61.964 13.1892 62.26 12.7969 62.6233 12.473C62.9866 12.1491 63.4102 11.9 63.8698 11.7397V11.7397Z" fill="#477AA1"/>
</g>
<defs>
<clipPath id="clip0_1758_184">
<rect width="184" height="184.12" fill="white"/>
</clipPath>
</defs>
</svg>
